HIERARCHY
ROOT Hips
{
	OFFSET 55.310501 45.591206 43.872097
	CHANNELS 6 Xposition Yposition Zposition Zrotation Xrotation Yrotation
	JOINT Chest
	{
		OFFSET -0.153500 1.163101 7.852402
		CHANNELS 6 Xposition Yposition Zposition Zrotation Xrotation Yrotation
		JOINT Chest2
		{
			OFFSET 0.000000 0.000000 3.343300
			CHANNELS 6 Xposition Yposition Zposition Zrotation Xrotation Yrotation
			JOINT Neck
			{
				OFFSET 0.000000 0.000000 7.785500
				CHANNELS 6 Xposition Yposition Zposition Zrotation Xrotation Yrotation
				JOINT Head
				{
					OFFSET 0.000000 0.000000 2.173901
					CHANNELS 6 Xposition Yposition Zposition Zrotation Xrotation Yrotation
					End Site
					{
						OFFSET 0.000000 0.000000 10.528198
					}
				}
			}
			JOINT LeftCollar
			{
				OFFSET 2.676300 -1.652401 4.938301
				CHANNELS 6 Xposition Yposition Zposition Zrotation Xrotation Yrotation
				JOINT LeftShoulder
				{
					OFFSET 4.299000 0.000000 0.000000
					CHANNELS 6 Xposition Yposition Zposition Zrotation Xrotation Yrotation
					JOINT LeftElbow
					{
						OFFSET 0.000000 0.000000 -10.245102
						CHANNELS 6 Xposition Yposition Zposition Zrotation Xrotation Yrotation
						JOINT LeftWrist
						{
							OFFSET 0.000000 0.000000 -12.703300
							CHANNELS 6 Xposition Yposition Zposition Zrotation Xrotation Yrotation
							End Site
							{
								OFFSET 0.000000 0.000000 -2.173901
							}
						}
					}
				}
			}
			JOINT RightCollar
			{
				OFFSET -2.534599 -1.686401 5.195000
				CHANNELS 6 Xposition Yposition Zposition Zrotation Xrotation Yrotation
				JOINT RightShoulder
				{
					OFFSET -4.144100 0.000000 0.000000
					CHANNELS 6 Xposition Yposition Zposition Zrotation Xrotation Yrotation
					JOINT RightElbow
					{
						OFFSET 0.000000 0.000000 -10.116501
						CHANNELS 6 Xposition Yposition Zposition Zrotation Xrotation Yrotation
						JOINT RightWrist
						{
							OFFSET 0.000000 0.000000 -12.937801
							CHANNELS 6 Xposition Yposition Zposition Zrotation Xrotation Yrotation
							End Site
							{
								OFFSET 0.000000 0.000000 -2.173901
							}
						}
					}
				}
			}
		}
	}
	JOINT LeftHip
	{
		OFFSET 2.175598 0.064499 -2.662899
		CHANNELS 6 Xposition Yposition Zposition Zrotation Xrotation Yrotation
		JOINT LeftKnee
		{
			OFFSET 0.000000 -0.000004 -18.585800
			CHANNELS 6 Xposition Yposition Zposition Zrotation Xrotation Yrotation
			JOINT LeftAnkle
			{
				OFFSET 0.000000 0.000000 -18.979500
				CHANNELS 6 Xposition Yposition Zposition Zrotation Xrotation Yrotation
				End Site
				{
					OFFSET 0.000000 -9.264000 0.000000
				}
			}
		}
	}
	JOINT RightHip
	{
		OFFSET -2.092400 -0.058102 -2.581200
		CHANNELS 6 Xposition Yposition Zposition Zrotation Xrotation Yrotation
		JOINT RightKnee
		{
			OFFSET 0.000000 -0.000004 -18.665001
			CHANNELS 6 Xposition Yposition Zposition Zrotation Xrotation Yrotation
			JOINT RightAnkle
			{
				OFFSET 0.000000 0.000000 -18.566601
				CHANNELS 6 Xposition Yposition Zposition Zrotation Xrotation Yrotation
				End Site
				{
					OFFSET 0.000000 -8.497601 0.000000
				}
			}
		}
	}
}
MOTION
Frames: 4
Frame Time: 0.041667
64.554199 49.229603 44.362392 345.216366 5.356146 -11.017313 -0.153502 1.163098 7.852402 15.540999 -2.282601 -11.067379 -0.000003 0.000002 3.343307 -2.590378 -7.721567 0.352564 0.000002 -0.000004 7.785506 -46.222441 12.141781 34.757033 -0.000005 -0.000005 2.173902 -2.594411 0.906135 -4.756724 2.676297 -1.652400 4.938304 15.028301 2.054855 8.381908 4.298998 0.000000 0.000001 -8.491281 -19.406581 -113.720437 -0.000001 -0.000001 -10.245099 235.354822 182.419012 180.303101 0.000000 -0.000010 -12.703301 75.693796 -2.774920 39.267242 -2.534598 -1.686402 5.195007 8.537983 13.055569 -5.092952 -4.144093 -0.000002 0.000009 26.108448 -24.514013 164.596166 0.000019 -0.000011 -10.116504 -127.439842 -11.541958 -74.269483 0.000003 -0.000006 -12.937815 -1.768719 -40.743161 -43.454965 2.175588 0.064501 -2.662899 -370.627402 -9.264957 11.424117 -0.000005 0.000003 -18.585800 196.773707 -196.322176 -166.191944 -0.000007 -0.000007 -18.979500 353.251783 14.085697 -13.138913 -2.092392 -0.058099 -2.581196 -163.084536 -0.432366 -124.978255 -0.000003 0.000000 -18.665016 -530.093550 19.091711 -105.507565 -0.000006 -0.000007 -18.566610 676.677004 -5.970940 -42.428476
64.563202 49.225201 44.368496 345.327507 5.291312 -11.093291 -0.153507 1.163106 7.852404 15.442817 -2.096315 -10.957644 -0.000003 0.000001 3.343306 -2.556138 -7.815772 0.348764 -0.000004 0.000000 7.785502 -46.259328 12.107735 34.724668 0.000004 -0.000010 2.173908 -2.635426 0.910511 -4.661833 2.676288 -1.652399 4.938300 14.950818 2.107584 8.475185 4.298999 -0.000001 0.000004 -8.470411 -19.333363 -113.844862 -0.000004 0.000000 -10.245102 235.404601 182.481290 180.302050 0.000005 -0.000010 -12.703302 75.559207 -2.817759 39.083848 -2.534601 -1.686397 5.194995 8.299483 12.938210 -4.969451 -4.144104 0.000000 -0.000006 26.131023 -24.345509 164.458032 0.000008 0.000000 -10.116502 -127.624038 -11.396442 -74.291203 0.000016 0.000010 -12.937801 -1.482185 -40.755394 -43.292437 2.175591 0.064497 -2.662903 -370.733543 -9.225766 11.456864 -0.000014 -0.000001 -18.585804 196.744842 -196.356682 -166.188160 -0.000003 -0.000011 -18.979500 353.285251 14.020056 -13.111671 -2.092403 -0.058091 -2.581202 -163.151909 -0.519094 -124.930553 0.000005 -0.000001 -18.665010 -530.026559 18.957648 -105.529749 -0.000010 -0.000011 -18.566601 676.525483 -5.972510 -42.627569
64.569298 49.220802 44.376392 345.412365 5.259147 -11.118657 -0.153497 1.163109 7.852398 15.358509 -2.050020 -10.929335 -0.000007 0.000005 3.343308 -2.489510 -7.824078 0.353468 -0.000004 -0.000008 7.785505 -46.299113 12.031653 34.739749 0.000001 0.000001 2.173904 -2.689616 0.765595 -4.613555 2.676291 -1.652405 4.938302 14.720593 2.263738 8.670603 4.299002 0.000003 -0.000010 -8.383515 -19.351099 -114.068906 -0.000010 -0.000002 -10.245115 235.597595 182.508078 180.295479 -0.000010 -0.000001 -12.703294 75.294298 -2.853359 38.991986 -2.534598 -1.686400 5.195000 7.987977 12.814749 -4.702692 -4.144112 0.000006 -0.000004 26.325771 -24.260395 164.273044 0.000021 -0.000004 -10.116501 -127.636633 -11.294821 -74.339171 0.000007 -0.000010 -12.937799 -1.239160 -40.756159 -43.168677 2.175604 0.064504 -2.662900 -370.760973 -9.205088 11.451824 -0.000005 0.000006 -18.585800 196.817310 -196.412512 -166.214771 -0.000004 -0.000003 -18.979498 353.162554 13.978753 -13.110202 -2.092398 -0.058089 -2.581202 -163.167195 -0.576463 -124.825792 0.000007 -0.000006 -18.665009 -529.942193 18.897501 -105.571850 -0.000000 -0.000012 -18.566599 676.401939 -5.942281 -42.821529
64.573807 49.215805 44.385197 345.471569 5.266255 -11.113059 -0.153501 1.163110 7.852408 15.302701 -2.065784 -10.958473 0.000004 0.000005 3.343299 -2.393360 -7.823310 0.362597 0.000002 0.000002 7.785503 -46.312982 11.939908 34.772756 -0.000004 -0.000006 2.173902 -2.779467 0.783933 -4.598988 2.676299 -1.652394 4.938302 14.357749 2.496654 8.936490 4.298994 0.000006 0.000005 -8.233692 -19.449303 -114.365678 -0.000004 0.000001 -10.245113 235.941126 182.499895 180.289113 0.000000 -0.000017 -12.703300 74.905428 -2.874202 38.994619 -2.534593 -1.686394 5.195000 7.996666 12.866220 -4.653066 -4.144104 0.000007 -0.000002 26.142991 -24.272312 164.254220 0.000017 -0.000002 -10.116496 -127.782881 -11.381953 -74.427547 -0.000001 0.000006 -12.937801 -1.236241 -40.717309 -43.126928 2.175586 0.064502 -2.662894 -370.744581 -9.212067 11.424367 -0.000005 -0.000002 -18.585804 196.929558 -196.470228 -166.255943 -0.000006 -0.000007 -18.979500 352.975352 13.949460 -13.121004 -2.092390 -0.058088 -2.581200 -163.133249 -0.601484 -124.683478 0.000001 -0.000003 -18.665010 -529.834549 18.893814 -105.659222 -0.000002 -0.000003 -18.566601 676.341615 -5.937630 -42.956019
